<svg xmlns="http://www.w3.org/2000/svg" width="848" height="1024" viewBox="0 0 848 1024"><path fill="#151d2f" d="M4190 8310c-9-6-10-10-3-10 6 0 15 5 18 10 8 12 4 12-15 0m300 0c-13-8-13-10 2-10 9 0 20 5 23 10 8 13-5 13-25 0m388 3c12-2 30-2 40 0 9 3-1 5-23 4-22 0-30-2-17-4m100 0c7-3 16-2 19 1 4 3-2 6-13 5-11 0-14-3-6-6m212-463c-13-8-12-10 3-10 9 0 17 5 17 10 0 12-1 12-20 0m1189-267c-13-16-12-17 4-4 9 7 17 15 17 17 0 8-8 3-21-13m-2393-972c-4-7-5-15-2-18 9-9 19 4 14 18-4 11-6 11-12 0m3399-380c-3-5-1-12 5-16 5-3 10 1 10 9 0 18-6 21-15 7m-3785-257c0-8 5-12 10-9 6 4 8 11 5 16-9 14-15 11-15-7m3900-128c0-23 16-27 17-5 1 10-2 19-8 19-5 0-9-6-9-14m27-103c-11-11-8-23 6-23 8 0 14 7 14 15 0 16-9 19-20 8m-49-389c-9-8 3-44 13-38 11 7 12 44 1 44-5 0-11-3-14-6m-1-65c7-7 15-10 18-7s-2 9-12 12c-14 6-15 5-6-5m-99-216c7-3 16-2 19 1 4 3-2 6-13 5-11 0-14-3-6-6m-581-402c-3-12-1-21 3-21 14 0 19 15 11 29-6 9-10 7-14-8m223-47c0-17 22-14 28 4 2 7-3 12-12 12s-16-7-16-16m-134-7c3-10 9-15 12-12s0 11-7 18c-10 9-11 8-5-6m200-15c-2-4-1-14 5-22 7-12 9-10 9 8 0 23-5 28-14 14m-484-11c4-13 18-16 19-4 0 4-5 9-11 12-7 2-11-2-8-8m603-2c-11-17 1-21 15-4 8 9 8 15 2 15s-14-5-17-11m-170-29c-3-6 1-7 9-4 18 7 21 14 7 14-6 0-13-4-16-10m-560-39c-6-11 9-23 19-14 9 9 7 23-3 23-6 0-12-4-16-9m253-8c7-3 16-2 19 1 4 3-2 6-13 5-11 0-14-3-6-6M1396 6053c-11-11-6-23 9-23 8 0 15 4 15 9 0 13-16 22-24 14m515-659c0-11 3-14 6-6 3 7 2 16-1 19-3 4-6-2-5-13m-21-43c0-6 4-13 10-16s7 1 4 9c-7 18-14 21-14 7m-534-75c3-8 12-12 20-9 17 6 9 23-11 23-8 0-12-6-9-14m659-227c-4-6-5-12-2-15 7-7 37 7 37 17 0 13-27 11-35-2m-274-104c1-19 18-51 18-35 0 8-4 22-9 30s-9 11-9 5m-75-13c-3-6 3-12 15-15s19-1 16 6c-5 15-24 20-31 9m152-29c7-3 16-2 19 1 4 3-2 6-13 5-11 0-14-3-6-6m-238-48c7-9 15-13 17-11 7 7-7 26-19 26-6 0-6-6 2-15m317 8c-12-12-7-22 8-17 8 4 15 10 15 15 0 11-14 12-23 2m-211-27c5-14 34-31 34-20 0 7-27 34-34 34-3 0-3-6 0-14m-70-101c-16-12-17-15-4-15 9 0 18 7 22 15 7 18 6 18-18 0m2 4938c7-3 16-2 19 1 4 3-2 6-13 5-11 0-14-3-6-6m2562-463c0-5 10-10 23-10 18 0 19 2 7 10-19 13-30 13-30 0m987-41c7-7 15-10 18-7s-2 9-12 12c-14 6-15 5-6-5m774-175c0-11 3-14 6-6 3 7 2 16-1 19-3 4-6-2-5-13m683-413c0-11 5-17 13-14 10 4 11 9 2 19-15 18-15 18-15-5m816-730c0-5 7-12 16-15 14-5 15-4 4 9-14 17-20 19-20 6M660 7658c0-9 5-20 10-23 13-8 13 5 0 25-8 13-10 13-10-2m7021-54c0-11 3-14 6-6 3 7 2 16-1 19-3 4-6-2-5-13m324-485c-4-6-5-12-2-15 2-3 7 2 10 11 7 17 1 20-8 4M760 6583c0-13 5-23 10-23 13 0 13 11 0 30-8 12-10 11-10-7m-162-120c7-3 16-2 19 1 4 3-2 6-13 5-11 0-14-3-6-6m7845-443c3-52 17-52 17 0 0 22-4 40-9 40s-9-18-8-40M286 5072c-2-4-1-14 4-22 7-11 9-9 7 8-1 24-3 26-11 14m-63-257c0-8 4-12 9-9s6 10 3 15c-9 13-12 11-12-6m-56-1c-3-5 1-15 9-22 16-14 18-5 5 17-5 7-11 9-14 5M2 4674c0-17 3-22 8-13 5 6 6 18 3 26-8 19-10 16-11-13"/><path fill="#142338" d="M3002 8680c0-14 2-19 5-12 2 6 2 18 0 25-3 6-5 1-5-13m121-178c0-10 7-19 14-19 17 0 17 12-1 27-12 9-15 8-13-8m213-845c3-10 9-15 12-12s0 11-7 18c-10 9-11 8-5-6m1999-38c-9-14-2-20 14-10q12 9 3 15c-6 3-14 1-17-5m-880-1189c4-6 11-8 16-5 14 9 11 15-7 15-8 0-12-5-9-10m-274-536c0-11 3-14 6-6 3 7 2 16-1 19-3 4-6-2-5-13m-60-110c0-11 3-14 6-6 3 7 2 16-1 19-3 4-6-2-5-13m-431-304c-9-16-8-18 5-14 8 4 15 12 15 20 0 20-7 17-20-6m-406 1369c-3-6-1-16 5-22 8-8 11-5 11 11 0 24-5 28-16 11m-82-39c0-14 2-19 5-12 2 6 2 18 0 25-3 6-5 1-5-13m-96-179c-4-7-5-15-2-18 9-9 19 4 14 18-4 11-6 11-12 0m-1806 101c0-15 11-21 27-15 12 5 12 7 1 14-17 11-28 11-28 1m-88-69c-15-6-6-23 14-23 8 0 14 7 14 15 0 15-6 17-28 8m268-194c0-5 10-9 22-9s18 3 14 7c-10 11-36 12-36 2m35-290c-10-15 3-25 16-12 7 7 7 13 1 17-6 3-14 1-17-5m45-9c-13-8-12-10 3-10 9 0 17 5 17 10 0 12-1 12-20 0m-96-33c-8-21-3-29 13-19 8 5 9 13 3 22-7 12-10 12-16-3m184-134c7-3 16-2 19 1 4 3-2 6-13 5-11 0-14-3-6-6m18-41c-3-6 1-13 10-16 23-9 28-2 10 13-8 7-17 8-20 3m-529-8c-8-8 3-34 14-34 5 0 9 9 9 20 0 19-11 26-23 14m4-1010c0-11 3-14 6-6 3 7 2 16-1 19-3 4-6-2-5-13m849-242c0-10 36-9 46 1 4 4-5 7-19 7-15 0-27-4-27-8m365-303c-4-6-5-12-2-15 2-3 7 2 10 11 7 17 1 20-8 4m-645-99c-12-8-9-10 13-10 15 0 27 5 27 10 0 13-20 13-40 0m710-34c0-24 17-28 23-6 3 13 0 20-9 20-8 0-14-6-14-14m-1034-85c-3-5 1-11 9-15 9-3 15 0 15 9 0 16-16 20-24 6m82-138c7-3 16-2 19 1 4 3-2 6-13 5-11 0-14-3-6-6m732-107c0-2 9-6 20-9s18-1 14 4c-5 9-34 13-34 5m-24-63c-6-14-5-15 5-6 7 7 10 15 7 18s-9-2-12-12m-574-2c-9-5-10-15-4-31l9-24 7 28c8 32 6 38-12 27m514-16c-19-15-19-15 2-15 13 0 22 6 22 15 0 18 0 18-24 0m-58-12c7-3 16-2 19 1 4 3-2 6-13 5-11 0-14-3-6-6m208-96c3-10 9-15 12-12s0 11-7 18c-10 9-11 8-5-6m-429-33c-8-8 1-24 14-24 5 0 9 7 9 15 0 15-12 20-23 9m233-88c0-2 7-7 16-10 8-3 12-2 9 4-6 10-25 14-25 6m-167-13c-19-7-15-23 5-23 10 0 19 7 19 15 0 16-4 17-24 8m302-103c-3-5-4-14 0-20 8-13 35-1 35 16 0 16-26 19-35 4m47-12c-16-16-15-38 2-38 8 0 14 10 14 25 0 29 0 29-16 13m1059 2396c0-11 3-14 6-6 3 7 2 16-1 19-3 4-6-2-5-13m70-490c0-11 3-14 6-6 3 7 2 16-1 19-3 4-6-2-5-13m49 6c0-4 7-7 15-6 23 3 26 12 5 13-11 1-20-2-20-7m-166-31c-3-6-1-16 5-22 8-8 11-5 11 11 0 24-5 28-16 11m-959-440c-4-6-5-12-2-15 2-3 7 2 10 11 7 17 1 20-8 4m-35-89c-13-8-12-10 3-10 9 0 17 5 17 10 0 12-1 12-20 0m1012 5c-1-19 3-35 8-35 12 0 13 40 1 58-5 8-8 0-9-23m-56-102c-6-14-5-15 5-6 7 7 10 15 7 18s-9-2-12-12m-148-540c7-3 16-2 19 1 4 3-2 6-13 5-11 0-14-3-6-6m308-201c-2-4-1-14 4-22 7-11 9-9 7 8-1 24-3 26-11 14m-438-75c-3-19-2-25 4-19s8 18 6 28c-3 14-5 12-10-9m94 3c0-14 2-19 5-12 2 6 2 18 0 25-3 6-5 1-5-13m402-61c-8-14 11-33 25-25 6 4 11 11 11 16 0 13-29 20-36 9m-64-18c0-6 4-13 10-16s7 1 4 9c-7 18-14 21-14 7m-220-37c0-9 5-14 12-12 18 6 21 28 4 28-9 0-16-7-16-16m155-44c3-5 14-10 23-10 15 0 15 2 2 10-20 13-33 13-25 0m150-30c-3-6 1-7 9-4 18 7 21 14 7 14-6 0-13-4-16-10m-155-34c0-2 7-7 16-10 8-3 12-2 9 4-6 10-25 14-25 6m66-75c-3-5 0-11 7-14 8-3 14 1 14 9 0 16-13 19-21 5m62-3c5-5 16-8 23-6 8 3 3 7-10 11-17 4-21 3-13-5m-91-25c-10-9-9-23 2-23 5 0 11 7 15 15 5 15-5 20-17 8m119-1c-3-6-1-14 5-17 15-10 25 3 12 16-7 7-13 7-17 1m374-112c-12-7-10-9 7-7 12 0 19 5 17 9-6 10-6 10-24-2m-979 84c0-11 3-14 6-6 3 7 2 16-1 19-3 4-6-2-5-13m-2220-90c0-11 3-14 6-6 3 7 2 16-1 19-3 4-6-2-5-13m4649 5610c0-8 5-12 10-9 6 4 8 11 5 16-9 14-15 11-15-7m-1600-39c-11-13-10-14 4-9 9 3 16 10 16 15 0 13-6 11-20-6m2318-302c7-3 16-2 19 1 4 3-2 6-13 5-11 0-14-3-6-6m-2048-283c-13-8-12-10 3-10 9 0 17 5 17 10 0 12-1 12-20 0m37-6c3-7 9-14 14-14 14 0 10 17-5 23q-15 6-9-9m568-4c4-6 11-8 16-5 14 9 11 15-7 15-8 0-12-5-9-10m-1018-15c-8-20-4-29 11-24 5 2 6 13 2 23-6 19-7 19-13 1m1130-81c6-16 19-18 27-5 3 5-3 11-13 14-14 3-18 1-14-9m-791-41c-6-14-5-15 5-6 7 7 10 15 7 18s-9-2-12-12m1182-10c7-3 16-2 19 1 4 3-2 6-13 5-11 0-14-3-6-6m472-97c0-2 7-7 16-10 8-3 12-2 9 4-6 10-25 14-25 6m200-76c-9-6-10-10-3-10 6 0 15 5 18 10 8 12 4 12-15 0m1516-128c-3-6-1-14 5-17 15-10 25 3 12 16-7 7-13 7-17 1m-1271-11c-6-11 9-23 19-14 9 9 7 23-3 23-6 0-12-4-16-9m430-141c4-6 11-8 16-5 14 9 11 15-7 15-8 0-12-5-9-10m74-50c30-26 45-26 31 0-6 11-21 20-33 20l-22-1zm914-1479c0-10 7-17 13-14 7 3 10 11 7 19-8 20-22 17-20-5m145 7c9-9 15-9 24 0s7 12-12 12-21-3-12-12m-6463-18c4-6 11-8 16-5 14 9 11 15-7 15-8 0-12-5-9-10m-605-359c0-6 4-13 10-16s7 1 4 9c-7 18-14 21-14 7m7076-36c-3-8-1-15 4-15 13 0 22 18 11 24-5 3-11-1-15-9m724-119c0-9 7-16 16-16s14 5 12 12c-6 18-28 21-28 4m-725-136c-3-5 1-13 10-16 22-9 29 1 11 15-10 8-16 9-21 1m911-68c-2-4-1-14 5-22 7-12 9-10 9 8 0 23-5 28-14 14m6-67c0-16 2-22 5-12 2 9 2 23 0 30-3 6-5-1-5-18m-2390-40c0-16 2-22 5-12 2 9 2 23 0 30-3 6-5-1-5-18m2239 9c0-11 3-14 6-6 3 7 2 16-1 19-3 4-6-2-5-13m-721-18c0-2 7-7 16-10 8-3 12-2 9 4-6 10-25 14-25 6m722-46c0-14 2-19 5-12 2 6 2 18 0 25-3 6-5 1-5-13m151-45c0-22 2-30 4-17 2 12 2 30 0 40-3 9-5-1-4-23m-151-5c0-14 2-19 5-12 2 6 2 18 0 25-3 6-5 1-5-13m-7936-17c-9-9-7-33 3-33 12 0 22 28 12 34-5 3-11 3-15-1m5859-13c-8-14 9-34 23-29 7 3 6 11-3 22-9 13-15 15-20 7m1494-139c-6-45-2-71 9-71 15 0 17 66 2 75-5 3-11 1-11-4m-1374-81c3-5 14-10 23-10 15 0 15 2 2 10-20 13-33 13-25 0m1375-140c-13-8-12-10 3-10 9 0 17 5 17 10 0 12-1 12-20 0M307 4723c-4-3-7-13-7-22 1-13 3-13 11 2 11 19 8 33-4 20m29-50c-6-14-5-15 5-6 7 7 10 15 7 18s-9-2-12-12m7336-48c0-16 2-22 5-12 2 9 2 23 0 30-3 6-5-1-5-18m-1272-61c0-8 5-12 10-9 6 4 8 11 5 16-9 14-15 11-15-7m651-50c0-11 3-14 6-6 3 7 2 16-1 19-3 4-6-2-5-13m-6891-8c0-2 7-7 16-10 8-3 12-2 9 4-6 10-25 14-25 6m6048-33c7-3 16-2 19 1 4 3-2 6-13 5-11 0-14-3-6-6m178-30c-11-11-6-23 9-23 8 0 15 4 15 9 0 13-16 22-24 14m-306-128c0-16 16-20 24-6 3 5-1 11-9 15-9 3-15 0-15-9m694 4c-3-6-1-16 5-22 8-8 11-5 11 11 0 24-5 28-16 11m41-48c-3-5-1-12 4-15s11 1 15 9c6 16-9 21-19 6m570 0c-3-5-1-12 5-16 5-3 10 1 10 9 0 18-6 21-15 7m-860-21c-4-6 3-10 14-10 25 0 27 6 6 13-8 4-17 2-20-3m-178-17c-10-9-9-23 1-23 5 0 9 7 9 15 0 17-1 18-10 8m212-24c-10-6-7-9 14-9 29 0 35 5 14 13-8 3-20 1-28-4m-194-9c-8-13 15-24 27-12q9 9-6 15c-8 3-18 2-21-3m-305-96c0-8 5-12 10-9 6 4 8 11 5 16-9 14-15 11-15-7m2200-123c0-6 4-13 10-16s7 1 4 9c-7 18-14 21-14 7m-2179-107c0-11 3-14 6-6 3 7 2 16-1 19-3 4-6-2-5-13m-5574-8c-4-10-5-21-2-24 9-9 17 6 13 25-3 17-4 17-11-1m6691-3c7-3 16-2 19 1 4 3-2 6-13 5-11 0-14-3-6-6m57-4c-4-6-5-12-2-15 2-3 7 2 10 11 7 17 1 20-8 4m-79-18c-4-7-5-15-2-18 9-9 19 4 14 18-4 11-6 11-12 0m-6671-30c-3-5-2-12 3-15s9 1 9 9c0 17-3 19-12 6m7780-42c-4-6-5-12-2-15 2-3 7 2 10 11 7 17 1 20-8 4m-7820-10c-4-6-5-12-2-15 2-3 7 2 10 11 7 17 1 20-8 4m5900-19c4-6 11-8 16-5 14 9 11 15-7 15-8 0-12-5-9-10m1870-20c-3-5 4-14 15-20 16-8 20-8 20 4 0 16-27 29-35 16m-7945-22c0-19 2-20 10-8 13 19 13 30 0 30-5 0-10-10-10-22m8016-3c-18-13-18-14 3-12 11 1 21 7 21 14 0 16 0 16-24-2m71-16c7-7 15-10 18-7s-2 9-12 12c-14 6-15 5-6-5m-8247-13c0-2 7-9 15-16 13-11 14-10 9 4s-24 23-24 12m6287-15c-4-17-3-21 5-13 5 5 8 16 6 23-3 8-7 3-11-10m-6199-8c7-3 16-2 19 1 4 3-2 6-13 5-11 0-14-3-6-6m48-5c7-11 32-10 39 2 3 6-4 9-19 8-13-1-22-6-20-10m8110-39c-18-17-18-18 3-16 11 1 23 7 25 14 8 20-8 22-28 2m-44-3c7-8 15-12 17-11 5 6-10 25-20 25-5 0-4-6 3-14m-8012-11c0-17 2-18 24-9 23 9 20 24-4 24-11 0-20-7-20-15m5980-54c0-13 21-19 43-13 15 4 16 7 5 13-17 12-48 11-48 0m260-25c0-9 7-12 20-9 11 3 17 9 14 14-8 14-34 10-34-5M52 3464c-16-17-2-24 39-21 18 1 25 7 22 17-5 20-44 23-61 4"/><path fill="#162e4b" d="M1055 8770c-7-12 2-30 16-30 5 0 9 9 9 20 0 21-15 27-25 10m66-346c0-11 3-14 6-6 3 7 2 16-1 19-3 4-6-2-5-13m3457 119c7-3 16-2 19 1 4 3-2 6-13 5-11 0-14-3-6-6m477-53c4-6 11-8 16-5 14 9 11 15-7 15-8 0-12-5-9-10m263-7c7-3 16-2 19 1 4 3-2 6-13 5-11 0-14-3-6-6m280-90c7-3 16-2 19 1 4 3-2 6-13 5-11 0-14-3-6-6m837-443c4-6 11-8 16-5 14 9 11 15-7 15-8 0-12-5-9-10m-705 522c0-15 11-21 27-15 12 5 12 7 1 14-17 11-28 11-28 1M3147 7153c-4-3-7-13-7-22 1-13 3-13 11 2 11 19 8 33-4 20m2123-437c0-2 7-7 16-10 8-3 12-2 9 4-6 10-25 14-25 6m-245-76c-16-7-17-9-3-9 9-1 20 4 23 9 7 11 7 11-20 0m2079 575c-9-23 2-30 28-18l23 10-23 12c-18 10-23 9-28-4m304-382c-4-14 0-24 8-27 15-6 16-1 5 28-7 19-8 19-13-1m188-372c-4-7-5-15-2-18 9-9 19 4 14 18-4 11-6 11-12 0m195-527c0-11 3-14 6-6 3 7 2 16-1 19-3 4-6-2-5-13m-6430 640c0-11 3-14 6-6 3 7 2 16-1 19-3 4-6-2-5-13m487-121c7-3 16-2 19 1 4 3-2 6-13 5-11 0-14-3-6-6m432-592c0-6 4-13 10-16s7 1 4 9c-7 18-14 21-14 7m3712-461c0-14 2-19 5-12 2 6 2 18 0 25-3 6-5 1-5-13m1586-1157c7-3 16-2 19 1 4 3-2 6-13 5-11 0-14-3-6-6m-166-278c-11-12-10-15 3-15 8 0 15 7 15 15 0 18-2 18-18 0m-472-449c0-2 7-7 16-10 8-3 12-2 9 4-6 10-25 14-25 6m-940-15c0-6 4-13 10-16s7 1 4 9c-7 18-14 21-14 7m846-104c3-10 9-15 12-12s0 11-7 18c-10 9-11 8-5-6m-331-58c-11-17 1-21 15-4 8 9 8 15 2 15s-14-5-17-11m-629-44c4-8 10-12 15-9 11 6 2 24-11 24-5 0-7-7-4-15m104 6c0-6 4-13 10-16s7 1 4 9c-7 18-14 21-14 7m120-1c-12-8-10-10 8-10 13 0 20 4 17 10-7 12-6 12-25 0m-190-9c0-5 9-11 19-14 14-3 18-1 14 9-6 15-33 19-33 5m108 2c6-2 18-2 25 0 6 3 1 5-13 5s-19-2-12-5m342-54c0-15 18-19 23-6 3 8-1 14-9 14s-14-4-14-8m73-3c0-8 6-12 14-9 7 3 10 9 7 14-8 14-21 11-21-5m-102-5c-8-5-9-11-3-15 5-3 12 1 16 9 6 17 6 18-13 6m229-5c0-2 7-7 16-10 8-3 12-2 9 4-6 10-25 14-25 6m-574-29c3-10 9-15 12-12s0 11-7 18c-10 9-11 8-5-6m272 6c7-3 16-2 19 1 4 3-2 6-13 5-11 0-14-3-6-6m77-14c-4-6-5-12-2-15 2-3 7 2 10 11 7 17 1 20-8 4m95 7c0-2 7-7 16-10 8-3 12-2 9 4-6 10-25 14-25 6m-220-10c0-2 7-7 16-10 8-3 12-2 9 4-6 10-25 14-25 6m56-5c-4-5 3-7 14-4 23 6 26 13 6 13-8 0-17-4-20-9m-1395-91c0-33 1-34 10-11 6 16 6 28-1 35s-10-1-9-24m1067 8c7-7 16-7 28 0 14 8 13 10-10 10-18 0-24-4-18-10m-843-188c-3-6 1-7 9-4 18 7 21 14 7 14-6 0-13-4-16-10m355-120c-13-8-12-10 3-10 9 0 17 5 17 10 0 12-1 12-20 0m435-11c-4-6-5-12-2-15 2-3 7 2 10 11 7 17 1 20-8 4m-40-49c-13-6-15-9-5-9 8 0 22 4 30 9 18 12 2 12-25 0M1054 5759c-3-6-1-16 5-22 8-8 11-5 11 11 0 24-5 28-16 11m57-415c0-11 3-14 6-6 3 7 2 16-1 19-3 4-6-2-5-13m-65-633c-3-5 1-14 9-21 13-10 15-9 15 9 0 21-14 28-24 12m11-54c-3-8-1-20 4-28 6-10 9-7 9 14 0 29-5 35-13 14m223-332c1-26 2-28 11-12 8 14 8 22 0 30s-11 3-11-18m-135-75c-3-6 1-7 9-4 18 7 21 14 7 14-6 0-13-4-16-10m135-439c0-17 18-21 24-6 3 9 0 15-9 15-8 0-15-4-15-9m20-40c0-5 6-14 14-21 12-9 15-8 13 9-1 20-27 31-27 12m320-100c0-5 11-11 24-13 17-4 23-1 19 9-6 14-43 18-43 4m1190-155c0-2 7-7 16-10 8-3 12-2 9 4-6 10-25 14-25 6m-147-84c-8-5-9-13-3-22 7-12 10-12 16 3 8 21 3 29-13 19m-633-57c-14-16-3-20 19-6 8 5 9 11 3 15-5 3-15-1-22-9m797-10c-4-8-3-16 1-19s9 4 9 15c2 23-3 25-10 4m40-41c-3-5 1-15 9-22 16-14 18-5 5 17-5 7-11 9-14 5m-632-14c-3-6 1-7 9-4 18 7 21 14 7 14-6 0-13-4-16-10m572-11c7-7 15-10 18-7s-2 9-12 12c-14 6-15 5-6-5m-389-6c7-3 16-2 19 1 4 3-2 6-13 5-11 0-14-3-6-6m92-3c0-5 12-10 28-10 21 0 24 2 12 10-20 13-40 13-40 0m138 3c6-2 18-2 25 0 6 3 1 5-13 5s-19-2-12-5m-153-44c-4-6-5-12-2-15 2-3 7 2 10 11 7 17 1 20-8 4m-205-355c0-17 22-14 28 4 2 7-3 12-12 12s-16-7-16-16m297-25c7-7 15-10 18-7s-2 9-12 12c-14 6-15 5-6-5m201-26c6-2 18-2 25 0 6 3 1 5-13 5s-19-2-12-5m-327-19c0-11 3-14 6-6 3 7 2 16-1 19-3 4-6-2-5-13m690-20c0-11 3-14 6-6 3 7 2 16-1 19-3 4-6-2-5-13m-313-1c7-3 16-2 19 1 4 3-2 6-13 5-11 0-14-3-6-6m257-4c-4-6-5-12-2-15 2-3 7 2 10 11 7 17 1 20-8 4m225 2c0-5 7-12 16-15 22-9 24-8 18 9-7 16-34 21-34 6m78 2c6-2 18-2 25 0 6 3 1 5-13 5s-19-2-12-5m74 1993c7-8 15-12 17-11 5 6-10 25-20 25-5 0-4-6 3-14m109-528c1-55 5-50 11 15 2 20 0 37-4 37s-7-24-7-52m389-218c0-5 10-10 23-10 18 0 19 2 7 10-19 13-30 13-30 0m-87-355c0-8 4-12 9-9s6 10 3 15c-9 13-12 11-12-6m-43-19c0-8 6-16 14-19 10-4 12 0 9 14-6 22-23 26-23 5m98 7c6-2 18-2 25 0 6 3 1 5-13 5s-19-2-12-5m-751-240c-10-9-9-23 1-23 5 0 9 7 9 15 0 17-1 18-10 8m740-14c7-7 15-10 18-7s-2 9-12 12c-14 6-15 5-6-5m-461-33c3-8 12-12 21-9 12 5 12 7 1 14-20 13-28 11-22-5m680-23c-6-14-5-15 5-6 7 7 10 15 7 18s-9-2-12-12m-260-1c-2-4 4-9 15-9 11-1 17 2 14 8-7 11-22 12-29 1m-265-18c0-11 3-14 6-6 3 7 2 16-1 19-3 4-6-2-5-13m145-11c-6-14-5-15 5-6 7 7 10 15 7 18s-9-2-12-12m-243-28c0-8 4-12 9-9s6 10 3 15c-9 13-12 11-12-6m292-36c-11-16-1-19 13-3 7 8 8 14 3 14s-13-5-16-11m380-148c-3-6 3-9 14-8 11 0 17 5 15 9-7 11-22 10-29-1m50-102c-4-6-5-13-2-16 7-7 27 6 27 18s-17 12-25-2m-339-121c7-11 34-10 34 1 0 6-9 9-19 8-11 0-17-5-15-9M910 4929c0-11 4-18 10-14 5 3 7 12 3 20-7 21-13 19-13-6m2224 50c-3-6-1-16 5-22 8-8 11-5 11 11 0 24-5 28-16 11m-182-138c2-7 7-12 11-12 12 1 9 15-3 20-7 2-11-2-8-8m1013 108c-10-15 3-25 16-12 7 7 7 13 1 17-6 3-14 1-17-5m-1578-146c-12-12-7-22 8-17 8 4 15 10 15 15 0 11-14 12-23 2m130-1100c-12-11-8-23 8-23 8 0 15 7 15 15 0 16-12 20-23 8m2301 5280c7-3 16-2 19 1 4 3-2 6-13 5-11 0-14-3-6-6m107-33c-4-6 3-10 14-10 25 0 27 6 6 13-8 4-17 2-20-3m445-94c0-9 30-14 35-6 4 6-3 10-14 10-12 0-21-2-21-4m1247-582c-8-8 1-24 14-24 5 0 9 7 9 15 0 15-12 20-23 9m319-253c-7-10 3-41 13-41 3 0 7 11 7 25 2 25-10 33-20 16m424-475c0-2 7-9 15-16 13-11 14-10 9 4s-24 23-24 12m211-242c0-11 3-14 6-6 3 7 2 16-1 19-3 4-6-2-5-13M691 5668c0-28 2-30 9-13 12 28 12 45 0 45-5 0-10-15-9-32m7620-474c0-11 3-14 6-6 3 7 2 16-1 19-3 4-6-2-5-13M560 4883c0-21 3-24 9-14 5 8 7 20 4 28-8 21-13 15-13-14m7579-235c-5-19-8-50-4-46 7 7 15 48 9 48-2 0-4-1-5-2m-12-223c-4-8-2-17 3-20 6-4 10 3 10 14 0 25-6 27-13 6m-22-115c4-6 11-8 16-5 14 9 11 15-7 15-8 0-12-5-9-10m-60-331c-10-15 3-25 16-12 7 7 7 13 1 17-6 3-14 1-17-5m-7364-85c0-11 3-14 6-6 3 7 2 16-1 19-3 4-6-2-5-13m-1-118c0-9 7-16 16-16s14 5 12 12c-6 18-28 21-28 4m90-315c0-6 4-13 10-16s7 1 4 9c-7 18-14 21-14 7m-49-20c-11-7-9-11 7-20 24-13 39 1 19 17-7 6-18 7-26 3m7379-1c-13-8-12-10 3-10 9 0 17 5 17 10 0 12-1 12-20 0m-7773-54c-4-9 2-13 17-12 14 0 22 6 19 14-7 16-30 15-36-2m54-33c0-25 1-26 9-8 12 27 12 35 0 35-5 0-10-12-9-27m-330-19c0-11 3-14 6-6 3 7 2 16-1 19-3 4-6-2-5-13m514-13c-3-5-1-12 4-15s11 1 15 9c6 16-9 21-19 6m7752-21c6-23 19-26 26-6 3 8-1 17-9 20-22 9-23 8-17-14M0 3306c0-2 7-7 16-10 8-3 12-2 9 4-6 10-25 14-25 6m8205-6c4-6 11-8 16-5 14 9 11 15-7 15-8 0-12-5-9-10m-8159-8c-3-6-1-14 5-17 14-9 20-2 10 14q-9 12-15 3m308-7c11-8 22-12 25-9 6 6-19 24-34 24-5-1-1-7 9-15m-174 1c0-2 7-7 16-10 8-3 12-2 9 4-6 10-25 14-25 6m8260-7c0-15 18-19 23-6 3 8-1 14-9 14s-14-4-14-8m-657-326c9-9 20-13 24-9s1 11-7 16c-25 16-35 11-17-7m74-158c-14-10-15-14-3-18 8-3 17 1 20 10 9 22 4 24-17 8m-7337-10c0-16 16-20 24-6 3 5-1 11-9 15-9 3-15 0-15-9m-431-12c-13-16-12-17 4-4 9 7 17 15 17 17 0 8-8 3-21-13m104-8-28-24 33 11c17 7 32 18 32 25 0 18-5 16-37-12m52 15c-7-12 27-22 37-12 6 6 1 12-11 15s-23 2-26-3m143 3c7-3 16-2 19 1 4 3-2 6-13 5-11 0-14-3-6-6m50 0c7-3 16-2 19 1 4 3-2 6-13 5-11 0-14-3-6-6m32-1c0-18 12-42 21-42 14 0 10 26-6 40-9 8-15 8-15 2m407 1c-3-5 6-9 19-9 13-1 21 2 18 7-6 11-31 12-37 2m7351-20c7-3 16-2 19 1 4 3-2 6-13 5-11 0-14-3-6-6m-7312-29c-4-9 1-14 14-14 23 0 27 15 6 23-8 3-17-1-20-9m-193-11c9-2 23-2 30 0 6 3-1 5-18 5-16 0-22-2-12-5m117-18c0-16 16-20 24-6 3 5-1 11-9 15-9 3-15 0-15-9"/><path fill="#1d385a" d="M1157 9316c-4-10-1-13 8-9 8 3 12 9 9 14-7 12-11 11-17-5m69-219c3-10 9-15 12-12s0 11-7 18c-10 9-11 8-5-6m619-38c-9-14 0-22 18-17 13 2 13 5 2 15-10 9-16 9-20 2m192-80c7-7 15-10 18-7s-2 9-12 12c-14 6-15 5-6-5m-826-95c0-11 3-14 6-6 3 7 2 16-1 19-3 4-6-2-5-13m70-610c0-11 3-14 6-6 3 7 2 16-1 19-3 4-6-2-5-13m31-19c0-16 2-22 5-12 2 9 2 23 0 30-3 6-5-1-5-18m1689-51c0-11 3-14 6-6 3 7 2 16-1 19-3 4-6-2-5-13m151-598c7-8 15-12 17-11 5 6-10 25-20 25-5 0-4-6 3-14M951 8104c0-11 3-14 6-6 3 7 2 16-1 19-3 4-6-2-5-13m31-109c0-16 2-22 5-12 2 9 2 23 0 30-3 6-5-1-5-18m92-126c-3-6-1-16 4-21 8-8 11-5 9 11-1 24-3 25-13 10m3841-288c-3-5-1-12 5-16 5-3 10 1 10 9 0 18-6 21-15 7m-3705-236c-13-16-8-28 14-31 8-1 11 6 8 22-5 28-6 29-22 9m-35-114c-3-5-1-12 5-16 5-3 10 1 10 9 0 18-6 21-15 7m5935 254c14-7 27-11 30-9 6 7-22 24-40 23-9 0-5-6 10-14M4925 6230c-8-13-1-24 14-19 6 3 7 10 2 18-6 10-10 10-16 1m-2805-24c0-2 7-7 16-10 8-3 12-2 9 4-6 10-25 14-25 6m3260-316c0-5 10-10 23-10 18 0 19 2 7 10-19 13-30 13-30 0m-2313-424c-3-8 0-16 7-19 6-3 13 4 13 14 2 22-12 25-20 5m-2161-83c-6-14-5-15 5-6 7 7 10 15 7 18s-9-2-12-12m2835-239c0-11 3-14 6-6 3 7 2 16-1 19-3 4-6-2-5-13m179-8c0-2 7-7 16-10 8-3 12-2 9 4-6 10-25 14-25 6m1948-583c7-3 16-2 19 1 4 3-2 6-13 5-11 0-14-3-6-6m-1647-159c0-11 3-14 6-6 3 7 2 16-1 19-3 4-6-2-5-13m-164-29c-4-8-2-17 3-20 6-4 10 3 10 14 0 25-6 27-13 6m-257-269c0-9 7-16 16-16 17 0 14 22-4 28-7 2-12-3-12-12m395-65c-3-5-1-12 5-16 5-3 10 1 10 9 0 18-6 21-15 7m5-351c-12-8-10-10 8-10 13 0 20 4 17 10-7 12-6 12-25 0m835-170c4-6 11-8 16-5 14 9 11 15-7 15-8 0-12-5-9-10m185-40c-13-8-12-10 3-10 9 0 17 5 17 10 0 12-1 12-20 0m258-107c7-3 16-2 19 1 4 3-2 6-13 5-11 0-14-3-6-6m1763-79c0-11 3-14 6-6 3 7 2 16-1 19-3 4-6-2-5-13m-2960-190c0-11 3-14 6-6 3 7 2 16-1 19-3 4-6-2-5-13m175-27c3-10 9-15 12-12s0 11-7 18c-10 9-11 8-5-6m-2641-98c-4-6-5-12-2-15 2-3 7 2 10 11 7 17 1 20-8 4m2731-2c3-10 9-15 12-12s0 11-7 18c-10 9-11 8-5-6m2197-141c-9-11-9-15 0-19 7-3 14 3 14 14 2 22 2 22-14 5m-2554-15c12-8 51-4 51 5 0 2-15 4-32 4-23 0-29-3-19-9m2589-8c7-3 16-2 19 1 4 3-2 6-13 5-11 0-14-3-6-6m-4198-93c-9-6-10-10-3-10 6 0 15 5 18 10 8 12 4 12-15 0m921-9c-8-5-9-11-3-15 5-3 12 1 16 9 6 17 6 18-13 6m-356-41c4-6 11-8 16-5 14 9 11 15-7 15-8 0-12-5-9-10m-360-20c4-6 11-8 16-5 14 9 11 15-7 15-8 0-12-5-9-10m-429-25c7-17 20-20 28-6 3 5-1 12-10 15-22 9-24 8-18-9m3311-36c7-7 15-10 18-7s-2 9-12 12c-14 6-15 5-6-5m-2997-83c0-2 7-7 16-10 8-3 12-2 9 4-6 10-25 14-25 6m3495-15c-3-5-1-12 4-15s11 1 15 9c6 16-9 21-19 6m1665 1155c0-8 4-17 9-20 5-4 7 3 4 14-6 23-13 26-13 6m-6833-47c6-23 9-24 16-5 3 8 0 17-7 19-10 4-12-1-9-14m-39-5c-8-7 3-44 13-44 4 0 10 3 13 8 5 9-19 44-26 36m6907-80c0-13 5-26 11-28 7-3 9 5 6 20-6 33-17 38-17 8m-6788 10c-8-8 1-24 12-24 4 0 8 7 8 15 0 16-9 20-20 9m6519-293c-4-7-5-15-2-18 9-9 19 4 14 18-4 11-6 11-12 0m-194-349c0-17 5-29 12-29 15 0 14 33-1 48-7 7-10 1-11-19m-6125-113c7-7 15-10 18-7s-2 9-12 12c-14 6-15 5-6-5m-502-128c-3-5-1-12 5-16 5-3 10 1 10 9 0 18-6 21-15 7m380-1c27-12 43-12 25 0-8 5-22 9-30 9-10 0-8-3 5-9m6482-1c7-7 15-10 18-7s-2 9-12 12c-14 6-15 5-6-5m-7157-15c0-8 5-12 10-9 6 4 8 11 5 16-9 14-15 11-15-7m280-18c0-9 40-13 46-5 3 5-6 9-20 9s-26-2-26-4m-630-16c-9-6-10-10-3-10 6 0 15 5 18 10 8 12 4 12-15 0m734-15c2-16 6-29 10-28 22 6 23 10 6 33l-19 25zm-399 5c-9-15-1-23 21-18 15 3 16 4 1 16-11 9-17 10-22 2m653-17c7-3 16-2 19 1 4 3-2 6-13 5-11 0-14-3-6-6m-442-16c3-10 9-15 12-12s0 11-7 18c-10 9-11 8-5-6m-618-4c6-2 18-2 25 0 6 3 1 5-13 5s-19-2-12-5m7887-3c4-6 11-8 16-5 14 9 11 15-7 15-8 0-12-5-9-10m-639-127c-11-11-6-23 9-23 8 0 15 4 15 9 0 13-16 22-24 14m-5791-53c-3-6 1-7 9-4 18 7 21 14 7 14-6 0-13-4-16-10m5861-18c-2-4 7-8 20-8 13-1 24 1 24 5 0 9-38 12-44 3m-5977-49c-13-16-12-17 4-4 9 7 17 15 17 17 0 8-8 3-21-13m-672-40c-11-11-8-23 6-23 8 0 14 7 14 15 0 16-9 19-20 8m378-4c-11-16-1-19 13-3 7 8 8 14 3 14s-13-5-16-11m7315-8c0-6 4-13 10-16s7 1 4 9c-7 18-14 21-14 7m-7594-58c-6-14-5-15 5-6 7 7 10 15 7 18s-9-2-12-12"/><path fill="#234970" d="M1480 8944c0-8 5-12 10-9 6 4 8 11 5 16-9 14-15 11-15-7m-109-490c0-11 3-14 6-6 3 7 2 16-1 19-3 4-6-2-5-13m749 316c0-5 9-14 20-20 16-8 18-8 14 4-6 17-34 30-34 16m440-244c0-8 7-16 15-20 13-4 14-2 5 14-13 23-20 26-20 6m-484 135c-3-5 1-11 9-14 9-4 12-1 8 9-6 16-10 17-17 5m-125-1047c0-11 3-14 6-6 3 7 2 16-1 19-3 4-6-2-5-13m2-89c-3-9-3-18-1-21 3-3 8 4 11 16 6 23-1 27-10 5m-583-116c0-8 5-21 10-29 8-12 9-10 7 7-4 26-17 43-17 22m423-243c2-6 11-12 20-14 11-2 15 1 12 11-7 16-37 19-32 3m75-63c7-3 16-2 19 1 4 3-2 6-13 5-11 0-14-3-6-6m-492-2c-3-5 1-12 10-15 22-8 25-4 9 11-8 7-16 9-19 4m832-288c6-2 18-2 25 0 6 3 1 5-13 5s-19-2-12-5m112-378c7-9 15-13 17-11 7 7-7 26-19 26-6 0-6-6 2-15m2858-122c7-3 16-2 19 1 4 3-2 6-13 5-11 0-14-3-6-6m-2838-322c0-6 4-13 10-16s7 1 4 9c-7 18-14 21-14 7m2320-320c0-5 7-11 14-14q15-6 9 9c-6 15-23 19-23 5m-350-131c-18-12-2-12 25 0 13 6 15 9 5 9-8 0-22-4-30-9m1860-609c0-6 4-13 10-16s7 1 4 9c-7 18-14 21-14 7M4248 3883c7-3 16-2 19 1 4 3-2 6-13 5-11 0-14-3-6-6m-2848-939c0-8 5-12 10-9 6 4 8 11 5 16-9 14-15 11-15-7m4550-884c-13-8-12-10 3-10 9 0 17 5 17 10 0 12-1 12-20 0m1410 835c-7-9-10-18-7-21s10 4 17 15c13 25 8 27-10 6m-3510-231c0-14 4-23 9-20s7 15 4 26c-7 28-13 25-13-6m31-70c0-11 3-14 6-6 3 7 2 16-1 19-3 4-6-2-5-13m-533-201c7-3 16-2 19 1 4 3-2 6-13 5-11 0-14-3-6-6m-292-222c-3-5 1-12 10-15 25-10 34-7 34 9s-35 21-44 6m2811-24c-3-7 3-13 14-14 12-1 16 3 12 13-6 18-19 18-26 1m-3699 356c7-3 16-2 19 1 4 3-2 6-13 5-11 0-14-3-6-6m-51-1693c-6-22 0-25 22-11 7 5 10 14 7 20-11 17-23 13-29-9m1223-110c0-19 3-21 12-12s9 15 0 24-12 7-12-12m3948 2105c-10-10 4-45 18-45 8 0 14 4 14 8 0 14-25 43-32 37m-548-530c-11-13-10-14 4-9 9 3 16 10 16 15 0 13-6 11-20-6m-5013-2c-4-3-7-13-7-21 0-18 13-7 16 13 2 17 1 18-9 8m6504-79c0-11 3-14 6-6 3 7 2 16-1 19-3 4-6-2-5-13m-1091 2c0-2 7-9 15-16 13-11 14-10 9 4s-24 23-24 12m306-25c-4-7-5-15-2-18 9-9 19 4 14 18-4 11-6 11-12 0m-6288-18c6-2 18-2 25 0 6 3 1 5-13 5s-19-2-12-5m497-12c-3-5-2-12 3-15s9 1 9 9c0 17-3 19-12 6m-1245-5c0-2 7-7 16-10 8-3 12-2 9 4-6 10-25 14-25 6m1093-15c0-11 5-17 9-15 11 7 10 34-1 34-6 0-9-9-8-19m-208-1c-16-7-17-9-3-9 9-1 20 4 23 9 7 11 7 11-20 0m6444-14c7-8 19-12 27-9 18 7 10 16-18 20-17 3-19 1-9-11m379-43c7-3 16-2 19 1 4 3-2 6-13 5-11 0-14-3-6-6m-5998-213c-12-8-10-10 8-10 13 0 20 4 17 10-7 12-6 12-25 0m-274-59c-3-5 1-11 9-15 8-3 15-1 15 4 0 13-18 22-24 11m-157-32c-6-4-8-12-5-18 8-12 46 3 46 18 0 10-25 10-41 0m-1325-64c-18-14-18-14 4-8 12 3 22 9 22 14 0 12-3 11-26-6m391 4c-4-6-5-12-2-15 2-3 7 2 10 11 7 17 1 20-8 4m-74-13c-10-12-8-13 8-9 12 3 21 9 21 14 0 14-16 11-29-5m-623-3c6-2 18-2 25 0 6 3 1 5-13 5s-19-2-12-5m380 0c6-2 18-2 25 0 6 3 1 5-13 5s-19-2-12-5m202-2c0-6 4-13 10-16s7 1 4 9c-7 18-14 21-14 7m-624-10c-3-5 1-11 9-15 9-3 15 0 15 9 0 16-16 20-24 6m944-11c0-19 11-26 23-14 8 8-3 34-14 34-5 0-9-9-9-20m6269-1c24-22 37-20 28 6-4 8-16 15-29 15h-22zm597-5c-6-16 2-18 22-5 11 7 11 9-1 14-9 3-18-1-21-9m391-5c7-7 15-10 18-7s-2 9-12 12c-14 6-15 5-6-5m-661-24c-8-23-8-25 8-25 8 0 13 7 12 15-3 23-13 27-20 10m164-5c0-15 21-23 32-12 6 6 2 11-11 15-12 3-21 1-21-3"/><path fill="#ad955e" d="M1270 9421c0-5 7-12 16-15 14-5 15-4 4 9-14 17-20 19-20 6m4393-836c0-8 7-15 15-15 7 0 12 5 10 12-6 18-25 21-25 3m-2661-84c-11-7-11-9 2-14 10-4 16-1 16 8 0 17-1 17-18 6m-1492-108c0-13 5-23 10-23 13 0 13 11 0 30-8 12-10 11-10-7m4840-159c0-14 4-23 9-20s7 15 4 26c-7 28-13 25-13-6m-4695-203c-3-5-1-12 5-16 5-3 10 1 10 9 0 18-6 21-15 7m4455-681c-8-5-11-12-7-16s13-2 19 4c15 15 7 24-12 12m-2785 81c-3-5-1-12 5-16 5-3 10 1 10 9 0 18-6 21-15 7M737 7265c3-8 9-12 14-9 12 7 11 11-5 17-10 4-13 1-9-8m559-844c-4-7-5-15-2-18 9-9 19 4 14 18-4 11-6 11-12 0m6425-77c0-11 3-14 6-6 3 7 2 16-1 19-3 4-6-2-5-13m-4162-136c-7-25-7-48 1-48 6 0 10 11 10 25 0 20-7 35-11 23m-1794 21c-9-14-2-20 14-10q12 9 3 15c-6 3-14 1-17-5m2980-58c-3-5-1-12 5-16 5-3 10 1 10 9 0 18-6 21-15 7m391 51c-3-6-1-14 5-17 14-9 20-2 10 14q-9 12-15 3M955 6071c-3-5-1-12 5-16 5-3 10 1 10 9 0 18-6 21-15 7m4112-252c7-7 15-10 18-7s-2 9-12 12c-14 6-15 5-6-5m-1647 11c-9-6-10-10-3-10 6 0 15 5 18 10 8 12 4 12-15 0m4679-112c-6-21-5-38 1-38 5 0 8 9 7 20-1 17-5 26-8 18m-3141-475c7-3 16-2 19 1 4 3-2 6-13 5-11 0-14-3-6-6m303 441c0-11 3-14 6-6 3 7 2 16-1 19-3 4-6-2-5-13m-2821-730c0-8 5-12 10-9 6 4 8 11 5 16-9 14-15 11-15-7m1743-189c-3-9-3-19 1-22 7-7 36 16 36 28 0 15-30 10-37-6m-1445 8c7-3 16-2 19 1 4 3-2 6-13 5-11 0-14-3-6-6m2366-27c0-13 4-22 9-19 10 6 9 43-2 43-5 0-8-11-7-24m274-23c6-2 18-2 25 0 6 3 1 5-13 5s-19-2-12-5m-337-249c0-11 3-14 6-6 3 7 2 16-1 19-3 4-6-2-5-13m-1041 151c7-9 15-13 17-11 7 7-7 26-19 26-6 0-6-6 2-15m481-162c-7-8-11-16-8-19 6-7 37 7 37 16 0 16-15 18-29 3m1074-132c-6-10 33-36 41-28 3 2 2 12-2 21-7 18-29 22-39 7m-785-214c0-9 4-18 9-21 5-4 8 1 7 9-3 21-16 31-16 12m-3690-216c0-6 4-13 10-16s7 1 4 9c-7 18-14 21-14 7m141-77c0-11 3-14 6-6 3 7 2 16-1 19-3 4-6-2-5-13m6504 7c-6-11 9-23 19-14 9 9 7 23-3 23-6 0-12-4-16-9m-6434-157c0-11 3-14 6-6 3 7 2 16-1 19-3 4-6-2-5-13m6413-121c2-9 8-19 14-21 14-4 15 0 6 22-8 21-23 20-20-1m-6318-236c3-10 9-15 12-12s0 11-7 18c-10 9-11 8-5-6m5989-127c4-6 11-8 16-5 14 9 11 15-7 15-8 0-12-5-9-10m-4730-20c4-6 11-8 16-5 14 9 11 15-7 15-8 0-12-5-9-10m-1011-216c-1-13 2-24 7-24 11 0 12 37 2 43-5 3-9-6-9-19m737-78c-10-12-8-13 8-9 12 3 21 9 21 14 0 14-16 11-29-5m4910-15c-7-5-11-15-9-22 3-10 8-7 17 9 13 24 12 26-8 13m-143-158c7-3 16-2 19 1 4 3-2 6-13 5-11 0-14-3-6-6m-75-63c-1-11 2-22 8-25 5-4 9 3 9 14 0 26-15 35-17 11m-108 51c-6-11 9-23 19-14 9 9 7 23-3 23-6 0-12-4-16-9m-583-471c0-14 2-19 5-12 2 6 2 18 0 25-3 6-5 1-5-13m-3657-179c-6-11 9-23 19-14 9 9 7 23-3 23-6 0-12-4-16-9m3331 11c-2-4-1-14 4-22 7-11 9-9 7 8-1 24-3 26-11 14m20-101c-4-7-5-15-2-18 9-9 19 4 14 18-4 11-6 11-12 0m19-21c-15-17-16-20-3-20 9 0 19 7 22 16 10 25 1 27-19 4"/><path fill="#cdb167" d="M592 9858c2-6 10-14 16-16 7-2 10 2 6 12-7 18-28 22-22 4m1386-535c7-3 16-2 19 1 4 3-2 6-13 5-11 0-14-3-6-6m517-141c-3-9 2-12 17-10 12 2 23 8 25 15 6 17-35 12-42-5m202-143c7-7 15-10 18-7s-2 9-12 12c-14 6-15 5-6-5m-7-29c-17-11-8-23 14-18 9 2 12 8 8 15-5 8-13 9-22 3m156-266c-18-18-20-24-6-24 5 0 14 9 20 20 13 24 7 26-14 4m1210 127c-7-10 22-37 30-28 4 3-1 13-9 22-9 8-18 11-21 6M700 8688c0-19 2-20 10-8 13 19 13 30 0 30-5 0-10-10-10-22m4647-2c-3-8 0-17 7-19 10-4 12 1 9 14-6 23-9 24-16 5m-1490 97c-12-12-7-22 8-17 8 4 15 10 15 15 0 11-14 12-23 2m-2311-351c-3-6-1-14 5-17 15-10 25 3 12 16-7 7-13 7-17 1m4629 19c-3-5-1-12 5-16 5-3 10 1 10 9 0 18-6 21-15 7m-170-1c-3-6 1-7 9-4 18 7 21 14 7 14-6 0-13-4-16-10m-3699-197c-6-14-5-15 5-6 7 7 10 15 7 18s-9-2-12-12m1161 50c-12-12-7-43 7-43 8 0 14 10 14 25 0 25-8 31-21 18m-2756 11c-12-14-12-17 0-25 9-5 16-3 21 9 14 36 4 43-21 16m5459 51c0-16 16-20 24-6 3 5-1 11-9 15-9 3-15 0-15-9m-4453-502c-10-9-9-23 2-23 5 0 11 7 15 15 5 15-5 20-17 8m-277-31c0-11 4-23 9-27 6-3 8 4 6 16-6 30-15 37-15 11m-593-68c-8-8 1-24 14-24 5 0 9 7 9 15 0 15-12 20-23 9m2969 7c-4-7-5-15-2-18 9-9 19 4 14 18-4 11-6 11-12 0m-2924-84c-8-10-6-13 9-13 20 0 25 11 10 20-5 3-13 0-19-7m475-874c-12-11-8-23 8-23 8 0 15 7 15 15 0 16-12 20-23 8m534-289c0-11 3-14 6-6 3 7 2 16-1 19-3 4-6-2-5-13m-363-196c-9-5-4-8 15-8 15 0 27 4 27 8 0 11-25 11-42 0m392-294c0-8 5-12 10-9 6 4 8 11 5 16-9 14-15 11-15-7m280-250c0-8 5-12 10-9 6 4 8 11 5 16-9 14-15 11-15-7m1276 142c3-9 11-16 16-16 13 0 5 23-10 28-7 2-10-2-6-12m-279-325c-3-12-1-21 3-21 14 0 19 15 11 29-6 9-10 7-14-8m60-28c-4-3-7-13-7-22 1-13 3-13 11 2 11 19 8 33-4 20m2609 179c-3-6-1-14 5-17 15-10 25 3 12 16-7 7-13 7-17 1m-726-78c0-8 5-12 10-9 6 4 8 11 5 16-9 14-15 11-15-7m-3190-114c-12-8-10-10 8-10 13 0 20 4 17 10-7 12-6 12-25 0m2967-277c-10-9-9-23 2-23 5 0 11 7 15 15 5 15-5 20-17 8m948 138c-6-11 9-23 19-14 9 9 7 23-3 23-6 0-12-4-16-9m-3755-56c0-18 19-40 26-32 4 4 0 15-9 24-9 10-17 13-17 8m3395-945c-7-12 2-30 16-30 12 0 12 27 0 35-5 3-12 1-16-5m37-29c4-13 18-16 19-4 0 4-5 9-11 12-7 2-11-2-8-8m2433 19c-8-13-1-24 14-19 6 3 7 10 2 18-6 10-10 10-16 1m-2415-339c0-5 11-8 25-7 33 1 33 16 0 16-14 0-25-4-25-9m-2446-72c-3-6-1-16 5-22 8-8 11-5 11 11 0 24-5 28-16 11m634-76c7-3 16-2 19 1 4 3-2 6-13 5-11 0-14-3-6-6m-2482-472c-4-7-5-15-2-18 9-9 19 4 14 18-4 11-6 11-12 0m1821-118c-9-9-9-43 1-43 11 0 32 37 25 44-8 8-18 8-26-1m4168-312c-3-5-1-12 5-16 5-3 10 1 10 9 0 18-6 21-15 7m-472-503c-2-16 1-18 10-9 7 7 8 14 1 21-6 6-10 2-11-12m-38-27c-6-11 9-23 19-14 9 9 7 23-3 23-6 0-12-4-16-9m-5079 331c-3-6-1-14 5-17 15-10 25 3 12 16-7 7-13 7-17 1m5534 18c-8-5-11-12-7-16s13-2 19 4c15 15 7 24-12 12m-129-146c0-11 3-14 6-6 3 7 2 16-1 19-3 4-6-2-5-13m-5293-61c7-3 16-2 19 1 4 3-2 6-13 5-11 0-14-3-6-6m4932-258c-11-13-10-14 4-9 9 3 16 10 16 15 0 13-6 11-20-6m-4411-157c-5-18-6-38-1-34 7 8 12 36 6 36-2 0-4-1-5-2m418-258c9-11 19-17 21-15 6 6-18 35-29 35-5 0-1-9 8-20"/><path fill="#2e618c" d="M2800 7141c0-6 4-13 10-16s7 1 4 9c-7 18-14 21-14 7m-46-52c-9-16 2-22 21-11 15 8 16 10 1 15-8 3-18 2-22-4m-351-197c0-12 5-22 9-22 11 0 10 12-2 30-7 12-9 10-7-8m43-35c3-10 9-15 12-12s0 11-7 18c-10 9-11 8-5-6m-846 74c0-6 4-13 10-16s7 1 4 9c-7 18-14 21-14 7m1266-813c3-5 10-6 15-3 13 9 11 12-6 12-8 0-12-4-9-9m1366-698c0-19 2-27 5-17 2 9 2 25 0 35-3 9-5 1-5-18m-7-211c-4-6-5-12-2-15 2-3 7 2 10 11 7 17 1 20-8 4m413-1566c7-3 16-2 19 1 4 3-2 6-13 5-11 0-14-3-6-6M3026 1961c-4-7-5-15-2-18 9-9 19 4 14 18-4 11-6 11-12 0m-41-30c-3-5-1-12 5-16 5-3 10 1 10 9 0 18-6 21-15 7m190-1c-3-6 1-7 9-4 18 7 21 14 7 14-6 0-13-4-16-10m-258-21c7-7 15-10 18-7s-2 9-12 12c-14 6-15 5-6-5m-147-258c0-17 18-21 24-6 3 9 0 15-9 15-8 0-15-4-15-9m13-176c0-8 4-12 9-9s6 10 3 15c-9 13-12 11-12-6m3537 505c-13-8-12-10 3-10 9 0 17 5 17 10 0 12-1 12-20 0m-920-769c0-6 4-13 10-16s7 1 4 9c-7 18-14 21-14 7m-24-95c3-9 11-16 16-16 13 0 5 23-10 28-7 2-10-2-6-12m198-270c-3-8-4-23-2-33 3-11 6-6 9 15 6 34 2 42-7 18m-34-28c0-12 3-18 7-14 11 10 12 36 2 36-5 0-9-10-9-22m46-71c3-10 9-15 12-12s0 11-7 18c-10 9-11 8-5-6m-2893 326c-17-6-16-23 1-23 8 0 16 7 20 15 6 15 1 17-21 8m3307-249c0-18 40-78 47-70 7 7-29 86-39 86-4 0-8-7-8-16m1966 20c-8-21-8-24 3-24 5 0 11 9 14 20 6 24-8 27-17 4m-110-30c-9-23-7-44 3-44 5 0 9 14 9 30-1 34-3 37-12 14m-6785 67c-9-6-10-11-2-15 13-8 31 1 31 15 0 11-11 11-29 0M672 745c-11-13-10-15 7-15q21 0 15 15c-7 18-6 18-22 0m-126-4c-4-7-5-15-2-18 9-9 19 4 14 18-4 11-6 11-12 0m-61-30c-3-5-1-12 5-16 5-3 10 1 10 9 0 18-6 21-15 7m-151-9c-13-8-15-44-2-36 4 3 13 14 18 25 11 19 4 25-16 11m-48-21c-3-5 1-11 9-15 8-3 15-1 15 4 0 13-18 22-24 11m199-12c-11-17 1-21 15-4 8 9 8 15 2 15s-14-5-17-11m472-23c-3-8 1-17 10-20 20-8 25-3 17 18-8 20-20 21-27 2m2609 202c3-4 11-5 19-1 21 7 19 12-4 10-11 0-18-5-15-9M1363 745c0-8 4-12 9-9s6 10 3 15c-9 13-12 11-12-6m687-32c0-5 4-15 10-23 11-18 25-7 17 15-6 15-27 21-27 8m1161 11c0-11 3-14 6-6 3 7 2 16-1 19-3 4-6-2-5-13m121-185c-1-17 2-28 7-25 10 6 12 56 2 56-4 0-8-14-9-31m-1670 46c6-14 13-23 16-21 7 7-9 46-18 46-5 0-4-11 2-25m3395-310c3-8 9-12 14-9 12 7 11 11-5 17-10 4-13 1-9-8m-30-26c7-7 15-10 18-7s-2 9-12 12c-14 6-15 5-6-5m-129-16c7-3 16-2 19 1 4 3-2 6-13 5-11 0-14-3-6-6m-958 83c0-2 9-6 20-9s18-1 14 4c-5 9-34 13-34 5m86-93c17-13 34-9 34 7 0 6-12 9-26 8-23-2-23-4-8-15M2400 1905c0-9 6-12 15-9 8 4 12 10 9 15-8 14-24 10-24-6m-34-33c-2-4 4-9 15-9 11-1 17 2 14 8-7 11-22 12-29 1m-149-106c-6-15 1-26 15-26 11 0 10 27-1 34-5 3-11 0-14-8M207 1583c-6-6 14-43 23-43 3 0 6 9 7 19 2 19-19 35-30 24m771-30c7-3 16-2 19 1 4 3-2 6-13 5-11 0-14-3-6-6m158-10c-6-14-5-15 5-6 7 7 10 15 7 18s-9-2-12-12m6224 13c0-2 7-7 16-10 8-3 12-2 9 4-6 10-25 14-25 6m47-10c-4-10 0-12 14-9 22 6 26 23 5 23-8 0-16-6-19-14m254-22c0-11 3-14 6-6 3 7 2 16-1 19-3 4-6-2-5-13m-100-20c0-11 3-14 6-6 3 7 2 16-1 19-3 4-6-2-5-13m159 7c0-17 18-21 24-6 3 9 0 15-9 15-8 0-15-4-15-9m206-7c-18-17-20-24-8-24 4 0 13 9 20 20 15 24 9 26-12 4m-7326-8c7-7 13-7 20 0 6 6 3 10-10 10s-16-4-10-10m6775-6c-3-6 1-7 9-4 18 7 21 14 7 14-6 0-13-4-16-10m640 0c-3-6 1-7 9-4 18 7 21 14 7 14-6 0-13-4-16-10m-700-20c-8-13 5-13 25 0 13 8 13 10-2 10-9 0-20-4-23-10m212 3c-10-9-9-33 1-33 4 0 8 9 8 20 0 23 0 22-9 13m433-3c0-5 10-10 23-10 18 0 19 2 7 10-19 13-30 13-30 0m397-4c-4-10-1-13 8-9 8 3 12 9 9 14-7 12-11 11-17-5m-8078-17c-10-6-7-9 14-9 29 0 35 5 14 13-8 3-20 1-28-4m-191-6c7-3 16-2 19 1 4 3-2 6-13 5-11 0-14-3-6-6m480 0c6-2 18-2 25 0 6 3 1 5-13 5s-19-2-12-5m322-8c-11-13-10-14 4-9 9 3 16 10 16 15 0 13-6 11-20-6m7193 8c9-2 23-2 30 0 6 3-1 5-18 5-16 0-22-2-12-5m-7958-22c-3-5-1-12 5-16 5-3 10 1 10 9 0 18-6 21-15 7m930-1220c-3-5-2-12 3-15s9 1 9 9c0 17-3 19-12 6m-195-29c0-14 11-21 26-15 21 8 17 23-6 23-11 0-20-4-20-8M363 24c-7-19 2-28 22-21 19 8 19 23 0 31-9 3-18-1-22-10"/><path fill="#4d6e90" d="M4530 2070c-12-7-10-9 8-7 12 0 22 5 22 9 0 11-12 10-30-2m-1825-210c4-6 11-8 16-5 14 9 11 15-7 15-8 0-12-5-9-10m1264-251c-10-6-7-9 14-9 29 0 35 5 14 13-8 3-20 1-28-4m171-10c0-12 5-19 12-17 18 6 20 25 3 31-10 5-15 0-15-14m-735 500c-4-6-5-12-2-15 2-3 7 2 10 11 7 17 1 20-8 4m-115-158c0-6 4-13 10-16s7 1 4 9c-7 18-14 21-14 7m-190-310c0-5 7-12 16-15 14-5 15-4 4 9-14 17-20 19-20 6m588-43c9-9 15-9 24 0s7 12-12 12-21-3-12-12m1492-360c0-9 5-20 11-23 17-11 20 0 4 21-13 17-14 17-15 2m300 172c0-9 31-30 45-30 3 0 1 9-5 20-11 20-40 28-40 10m2845-41c-10-15 3-25 16-12 7 7 7 13 1 17-6 3-14 1-17-5m-7445-7c0-10 38-13 44-3 3 3-6 8-20 9-13 1-24-2-24-6m-625-42c-3-6 1-7 9-4 18 7 21 14 7 14-6 0-13-4-16-10m240 0c4-6 11-8 16-5 14 9 11 15-7 15-8 0-12-5-9-10m295 5c0-7 30-13 34-7 3 4-4 9-15 9-10 1-19 0-19-2m7461-29c-10-12-8-13 8-9 12 3 21 9 21 14 0 14-16 11-29-5m69-1c-11-13-10-14 4-9 9 3 16 10 16 15 0 13-6 11-20-6m-6210-75c-13-8-13-10 2-10 9 0 20 5 23 10 8 13-5 13-25 0m-1394-49c-3-5 1-11 9-15 9-3 15 0 15 9 0 16-16 20-24 6m41-2c7-7 15-10 18-7s-2 9-12 12c-14 6-15 5-6-5m6513-6c0-14 19-38 25-32 8 8-5 39-16 39-5 0-9-3-9-7m-4005-13c4-6 11-8 16-5 14 9 11 15-7 15-8 0-12-5-9-10m-2235-4c0-2 7-7 16-10 8-3 12-2 9 4-6 10-25 14-25 6m3036-4c-2-4-1-14 5-22 7-12 9-10 9 8 0 23-5 28-14 14m3291-3c7-7 15-10 18-7s-2 9-12 12c-14 6-15 5-6-5m-6695-21c-16-16-15-28 2-28 7 0 16 9 19 20 6 23-3 26-21 8m258 3c0-6 4-13 10-16s7 1 4 9c-7 18-14 21-14 7m1696-18c-6-14-5-15 5-6 7 7 10 15 7 18s-9-2-12-12m-456-22c0-13 26-32 33-24 8 7-11 33-24 33-5 0-9-4-9-9m-226-22c-7-11 27-11 45 0 9 6 5 9-13 9-15 0-29-4-32-9m5078-11c2-6 10-14 16-16 7-2 10 2 6 12-7 18-28 22-22 4m-4671-12c-9-10-6-12 14-8 29 5 31 8 11 15-8 3-19 0-25-7M1001 891c-8-5-9-11-3-15 5-3 12 1 16 9 6 17 6 18-13 6m2819 114c7-8 16-12 21-9 13 8 1 24-18 24-13 0-13-3-3-15m-1542-2c7-3 16-2 19 1 4 3-2 6-13 5-11 0-14-3-6-6m4570-25c9-9 15-9 24 0s7 12-12 12-21-3-12-12m-5151-5c-12-12-7-22 8-17 8 4 15 10 15 15 0 11-14 12-23 2m733-5c0-9 7-19 16-22 25-10 27-1 4 19-17 15-20 16-20 3m123-1c2-7 14-14 26-15 28-4 20 13-9 21-14 3-20 1-17-6m4037-7c-12-8-11-10 7-10 12 0 25 5 28 10 8 13-15 13-35 0m-6103-7c-10-9-9-33 1-33 4 0 8 9 8 20 0 23 0 22-9 13m1138-13c-7-12 12-12 40 0 18 8 17 9-7 9-15 1-30-3-33-9m5985-6c0-8 5-12 10-9 6 4 8 11 5 16-9 14-15 11-15-7m-1080-10c0-8 5-12 10-9 6 4 8 11 5 16-9 14-15 11-15-7m-4552-1c7-3 16-2 19 1 4 3-2 6-13 5-11 0-14-3-6-6m552-12c0-25 6-27 13-6 4 8 2 17-3 20-6 4-10-3-10-14m4356-11c-17-6-18-7-3-13 9-3 19-2 23 4 9 15 2 18-20 9m-5159-17c-12-12-7-22 8-17 8 4 15 10 15 15 0 11-14 12-23 2m3573-17c0-9 7-19 15-23 25-9 27 2 5 22-18 17-20 17-20 1m1646 7c-11-11-6-23 9-23 8 0 15 4 15 9 0 13-16 22-24 14m495-9c0-11 3-14 6-6 3 7 2 16-1 19-3 4-6-2-5-13m-6156-14c4-6 11-8 16-5 14 9 11 15-7 15-8 0-12-5-9-10m-775-10c-9-6-10-10-3-10 6 0 15 5 18 10 8 12 4 12-15 0m718-2c9-9 15-9 24 0s7 12-12 12-21-3-12-12m7218 4c-3-6 1-13 10-16 23-9 28-2 10 13-8 7-17 8-20 3m-6053-24c3-16 28-27 45-20 8 3 3 10-14 18-32 17-35 17-31 2m127 4c0-4 10-9 22-9 18-2 20 0 8 7-18 12-30 13-30 2M660 810c-9-6-10-10-3-10 6 0 15 5 18 10 8 12 4 12-15 0m917-4c-6-14 1-26 14-26 4 0 7 9 6 20-1 23-12 26-20 6m-34-21c7-13 14-20 15-14 5 14-6 39-17 39-5 0-4-11 2-25m5218 6c-8-5-9-11-3-15 5-3 12 1 16 9 6 17 6 18-13 6m579 1c0-11 22-32 32-32 5 0 4 9-2 20-11 20-30 28-30 12m-5602-29c7-3 16-2 19 1 4 3-2 6-13 5-11 0-14-3-6-6m1199-12c-4-17-3-21 5-13 5 5 8 16 6 23-3 8-7 3-11-10m5369 6c3-10 9-15 12-12s0 11-7 18c-10 9-11 8-5-6m-2955-13c0-11 3-14 6-6 3 7 2 16-1 19-3 4-6-2-5-13m-3561-29c7-9 15-13 17-11 7 7-7 26-19 26-6 0-6-6 2-15m4663-2c-20-8-15-23 7-23 11 0 20 7 20 15 0 15-6 17-27 8m-3613-38c7-9 15-13 17-11 7 7-7 26-19 26-6 0-6-6 2-15m4367 4c7-7 15-10 18-7s-2 9-12 12c-14 6-15 5-6-5M120 668c0-14 28-20 46-10 14 8 11 10-15 14-17 2-31 1-31-4m6506-37c-3-5 1-12 10-15 20-8 29-1 19 13-8 13-22 14-29 2m-2980-9c-2-4-1-14 3-21 6-10 10-9 14 3 6 16-8 32-17 18m-100-21c-3-5 1-14 8-20 12-10 13-8 9 8-6 23-9 25-17 12M902 583c2-9 8-18 15-20 7-3 9 3 6 16-6 25-26 28-21 4m680-23c7-10 14-18 15-16 6 6-9 36-18 36-5 0-4-9 3-20m4863 9c-4-6-5-12-2-15 2-3 7 2 10 11 7 17 1 20-8 4m-4905-16c0-13 5-23 10-23 13 0 13 11 0 30-8 12-10 11-10-7m3903 10c9-2 23-2 30 0 6 3-1 5-18 5-16 0-22-2-12-5m-2717-95c6-9 40-5 50 5 4 3-7 5-24 4-16-1-28-5-26-9m3334-18c0-12 8-12 35 0 18 8 17 9-7 9-16 1-28-3-28-9m-29-26c0-11 3-14 6-6 3 7 2 16-1 19-3 4-6-2-5-13m20-10c0-11 3-14 6-6 3 7 2 16-1 19-3 4-6-2-5-13m-871-40c0-8 9-14 21-14 11 0 19 5 17 12-6 17-38 19-38 2m-1080-31c0-5 4-15 10-23 11-18 25-7 17 15-6 15-27 21-27 8m-2813-10c-12-12-7-33 8-33 17 0 19 9 7 28-5 7-11 9-15 5m2770-27c-3-8 0-17 8-20 11-4 25 13 25 30 0 11-29 2-33-10M468 282c-19-4-24-17-9-26 5-3 14 1 21 9 15 18 12 23-12 17m1057-23c-10-15 3-25 16-12 7 7 7 13 1 17-6 3-14 1-17-5m3165-29c0-12 17-12 45 0 17 7 15 9-12 9-18 1-33-3-33-9m-94-35c-9-26-7-32 5-12 6 10 9 21 6 23-2 3-7-2-11-11m63-107c-7-12-6-18 1-18 16 0 50 19 50 28 0 16-42 7-51-10M1637 69c7-7 15-10 18-7s-2 9-12 12c-14 6-15 5-6-5M158 43c5-27 8-28 28-9 19 20 18 23-9 28-20 4-23 1-19-19m4858 8c-3-4 1-17 9-27 14-18 14-18 15 9 0 26-13 36-24 18M61 28C78-6 80-6 80 23q0 27-15 27c-13 0-14-4-4-22"/><path fill="#1a7fc0" d="M4798 7133c6-2 18-2 25 0 6 3 1 5-13 5s-19-2-12-5m-347-329c0-11 3-14 6-6 3 7 2 16-1 19-3 4-6-2-5-13M4011 964c0-11 3-14 6-6 3 7 2 16-1 19-3 4-6-2-5-13"/><path fill="#63a2bd" d="M4092 6985c0-16 2-22 5-12 2 9 2 23 0 30-3 6-5-1-5-18m212-1267-19-23 23 19c21 18 27 26 19 26-2 0-12-10-23-22m-95-105c-13-16-12-17 4-4 9 7 17 15 17 17 0 8-8 3-21-13m-309-2932c0-5 7-12 16-15 14-5 15-4 4 9-14 17-20 19-20 6m-360-651c-9-6-10-10-3-10 6 0 15 5 18 10 8 12 4 12-15 0m705 29c-4-6-5-12-2-15 2-3 7 2 10 11 7 17 1 20-8 4m515-548c0-9 30-24 36-18 2 1-6 8-16 15-11 7-20 8-20 3m1688 132c7-3 16-2 19 1 4 3-2 6-13 5-11 0-14-3-6-6m-475-10c-19-7-15-41 7-65l20-22v42c0 42-6 52-27 45m812-54c-4-6-5-12-2-15 2-3 7 2 10 11 7 17 1 20-8 4m-504-115c0-11 3-14 6-6 3 7 2 16-1 19-3 4-6-2-5-13m350-100c0-11 3-14 6-6 3 7 2 16-1 19-3 4-6-2-5-13m-20-20c0-11 3-14 6-6 3 7 2 16-1 19-3 4-6-2-5-13m-1383-21c7-3 16-2 19 1 4 3-2 6-13 5-11 0-14-3-6-6m-3411 247c-21-25-21-25 1-27 12-1 18 6 20 23 2 29 1 29-21 4m-61-33c3-10 9-15 12-12s0 11-7 18c-10 9-11 8-5-6m334-246c0-5 7-12 16-15 14-5 15-4 4 9-14 17-20 19-20 6m-217-22c14-8 22-8 30 0s3 11-18 11c-26-1-28-2-12-11m569-14c-11-12-10-15 3-15 8 0 15 7 15 15 0 18-2 18-18 0m-72-45c-12-8-11-10 8-10 12 0 22 5 22 10 0 13-11 13-30 0m1131 414c0-11 3-14 6-6 3 7 2 16-1 19-3 4-6-2-5-13m3244-363c-3-5-1-12 5-16 5-3 10 1 10 9 0 18-6 21-15 7m-345-195c0-2 7-7 16-10 8-3 12-2 9 4-6 10-25 14-25 6M3018 903c7-3 16-2 19 1 4 3-2 6-13 5-11 0-14-3-6-6m2168-328c-3-8-1-15 4-15 13 0 22 18 11 24-5 3-11-1-15-9m1327 180c0-8 6-16 13-19s10 2 7 15c-6 22-20 26-20 4m134-32c-12-11-8-23 8-23 8 0 15 7 15 15 0 16-12 20-23 8m-44-223c0-16 4-30 9-30 10 0 10 31 0 48q-9 12-9-18m-131-104c7-8 15-12 17-11 5 6-10 25-20 25-5 0-4-6 3-14m-4426-13c-12-12-5-23 14-23 11 0 20 4 20 9 0 11-26 22-34 14m476-35c-16-16-15-28 3-28 8 0 15 9 15 20 0 23-2 24-18 8m-213-8c-18-12-6-23 19-18 16 2 17 5 7 15-7 6-18 8-26 3m4624-25c7-13 18-27 25-30s4 8-8 25c-26 36-32 38-17 5M77 239c-4-16-3-18 9-8 16 13 19 29 5 29-5 0-11-9-14-21m3083 10c0-4 11-9 24-11 17-3 23-1 19 8-5 13-43 16-43 3M20 242c0-5 7-13 16-16 10-4 14-1 12 6-5 15-28 23-28 10m2555-23c-4-6-5-12-2-15 2-3 7 2 10 11 7 17 1 20-8 4m555 1c-8-5-12-11-10-14 3-2 14 2 24 10 22 15 10 19-14 4m307-46c-7-7 2-34 12-34 4 0 7 9 8 20 2 19-8 26-20 14M2700 50c-13-8-12-10 3-10 9 0 17 5 17 10 0 12-1 12-20 0m4740-4c0-8 4-17 9-20 5-4 7 3 4 14-6 23-13 26-13 6m537 1c-3-9-2-19 4-23 15-9 18-2 9 20-6 17-7 18-13 3m-5650-8c7-7 15-10 18-7s-2 9-12 12c-14 6-15 5-6-5m3173-8c-13-26-13-31 5-31 9 0 15 9 15 25 0 30-6 32-20 6m647-6c-18-25-18-25 5-25 18 0 24 6 26 25 2 31-8 31-31 0m-3061 0c-9-24-8-25 15-25 14 0 19 5 17 17-4 23-24 27-32 8m-1163-2c-22-8-14-23 12-23 16 0 25 6 25 15 0 15-14 18-37 8"/><path fill="#b4c3ba" d="M4335 8770c4-6 11-8 16-5 14 9 11 15-7 15-8 0-12-5-9-10m952-57c-6-10 19-34 27-26 3 4 6 12 6 20 0 14-26 18-33 6m1298-594c-4-6-5-12-2-15 2-3 7 2 10 11 7 17 1 20-8 4m-3807-906c7-3 16-2 19 1 4 3-2 6-13 5-11 0-14-3-6-6m-303 258c-3-5-1-12 5-16 5-3 10 1 10 9 0 18-6 21-15 7m4756 45c-16-19-11-29 8-17 7 5 12 14 9 21-3 9-8 7-17-4m-5464-433c3-7 9-10 14-7 14 8 11 21-5 21-8 0-12-6-9-14m-101 4c3-10 9-15 12-12s0 11-7 18c-10 9-11 8-5-6m102-109c9-9 15-9 24 0s7 12-12 12-21-3-12-12m270-105c7-3 16-2 19 1 4 3-2 6-13 5-11 0-14-3-6-6m3428-392c-4-7-5-15-2-18 9-9 19 4 14 18-4 11-6 11-12 0m-120-818c-6-14-5-15 5-6 7 7 10 15 7 18s-9-2-12-12m-612-474c-3-5 6-9 20-9 31 0 34 6 6 13-11 3-23 1-26-4m-77-62c-3-9 1-18 9-21 16-6 18 2 5 22-7 11-9 11-14-1m403-136c0-6 4-13 10-16s7 1 4 9c-7 18-14 21-14 7m606 0c-3-5 1-11 9-15 9-3 15 0 15 9 0 16-16 20-24 6m121-11c3-11 9-20 14-20 11 0 11 3 3 24-9 23-23 20-17-4m-721-29c-4-7-5-15-2-18 9-9 19 4 14 18-4 11-6 11-12 0m-166-471c-12-8-11-10 8-10 12 0 22 5 22 10 0 13-11 13-30 0m-10-39c0-5 7-12 16-15 24-9 27-7 10 9-17 17-26 19-26 6m308-408c7-3 16-2 19 1 4 3-2 6-13 5-11 0-14-3-6-6m717 727c4-6 11-8 16-5 14 9 11 15-7 15-8 0-12-5-9-10m-1298-651c7-7 15-10 18-7s-2 9-12 12c-14 6-15 5-6-5m183-188c0-5 7-11 14-14q15-6 9 9c-6 15-23 19-23 5m180-195c0-2 7-7 16-10 8-3 12-2 9 4-6 10-25 14-25 6m400 130c0-15 18-31 26-23 7 7-7 37-17 37-5 0-9-6-9-14m-1668 205c2-7 7-12 11-12 12 1 9 15-3 20-7 2-11-2-8-8m966-388c7-3 16-2 19 1 4 3-2 6-13 5-11 0-14-3-6-6m952 279c0-12 19-26 26-19 2 2-2 10-11 17-9 8-15 8-15 2m-33-278c3-7 9-14 14-14 14 0 10 17-5 23q-15 6-9-9m-221-11c-6-14-5-15 5-6 7 7 10 15 7 18s-9-2-12-12M2094 2389c-3-6-2-15 3-20s9-1 9 11c0 23-2 24-12 9m1552-73c3-8 12-12 20-9 17 6 9 23-11 23-8 0-12-6-9-14m-121-486c-3-6 1-7 9-4 18 7 21 14 7 14-6 0-13-4-16-10m-325-139c0-5 7-12 16-15 14-5 15-4 4 9-14 17-20 19-20 6m350-15c0-8 4-17 9-20 5-4 7 3 4 14-6 23-13 26-13 6m-265-86c-3-6 1-7 9-4 18 7 21 14 7 14-6 0-13-4-16-10m9-51c0-11 6-19 13-19 20 0 23 15 4 27-13 8-17 7-17-8m226-70c0-11 4-18 10-14 5 3 7 12 3 20-7 21-13 19-13-6m75 12c-3-5-1-12 5-16 5-3 10 1 10 9 0 18-6 21-15 7m-315-41c0-13 18-22 24-11 3 5-1 11-9 15-8 3-15 1-15-4m153-83c5-15 37-22 37-9 0 5-9 12-21 15-13 3-19 1-16-6m165 6c7-3 16-2 19 1 4 3-2 6-13 5-11 0-14-3-6-6m-108-112c0-5 7-11 14-14q15-6 9 9c-6 15-23 19-23 5m2016 460c-3-5 1-11 9-14 9-4 12-1 8 9-6 16-10 17-17 5m197 142c-18-7-16-40 2-47 13-5 45 27 45 46 0 9-28 9-47 1m307-113c-9-6-10-10-3-10 6 0 15 5 18 10 8 12 4 12-15 0m150-207c0-13 14-28 28-30 13-3 16 7 4 22-9 12-32 18-32 8m16-390c-6-14-5-15 5-6 7 7 10 15 7 18s-9-2-12-12m1022-618c-4-17-1-25 8-25 8 0 14 9 14 19 0 30-17 34-22 6m38-42c-6-14-5-15 5-6 7 7 10 15 7 18s-9-2-12-12m-31-4c-4-6-5-12-2-15 2-3 7 2 10 11 7 17 1 20-8 4m106-148c-7-5-10-14-6-20 5-9 10-9 21 0 26 22 14 38-15 20"/><path fill="#a3e2e7" d="M4998 7093c7-3 16-2 19 1 4 3-2 6-13 5-11 0-14-3-6-6M2510 5105l-25-14 25-1c35 0 70 11 70 21 0 14-42 10-70-6m1431-2851c0-11 3-14 6-6 3 7 2 16-1 19-3 4-6-2-5-13m-20-71c0-25 1-26 9-8 12 27 12 35 0 35-5 0-10-12-9-27m1105-368c-3-9 0-15 9-15 16 0 20 16 6 24-5 3-11-1-15-9m19-35c4-6 11-8 16-5 14 9 11 15-7 15-8 0-12-5-9-10m66-56c0-11 3-14 6-6 3 7 2 16-1 19-3 4-6-2-5-13m-608-444c0-25 2-35 4-22 2 12 2 32 0 45-2 12-4 2-4-23m1937-955c7-8 16-12 21-9 13 8 1 24-18 24-13 0-13-3-3-15m125-15c3-5 12-7 20-3 21 7 19 13-6 13-11 0-18-4-14-10m-94-9c-9-6-7-10 8-14 12-3 21-1 21 3 0 14-15 19-29 11m-36-70c-3-5-1-12 4-15s11 1 15 9c6 16-9 21-19 6m462-172c7-7 15-10 18-7s-2 9-12 12c-14 6-15 5-6-5"/></svg>